<?xml version="1.0" encoding="UTF-8"?>
<svg id="Layer_2" data-name="Layer 2" xmlns="http://www.w3.org/2000/svg" viewBox="0 0 487 523.49">
  <defs>
    <style>
      .cls-1 {
        fill: #133258;
      }

      .cls-2 {
        fill: #1fbc79;
      }

      .cls-3 {
        fill: #5dbdea;
      }

      .cls-4 {
        fill: #f5960c;
      }

      .cls-5 {
        fill: #fefefe;
      }
    </style>
  </defs>
  <g id="Layer_1-2" data-name="Layer 1">
    <path class="cls-1" d="M315.64,25.35c60.42,44.74,163.87,67.21,169.45,156.53,2.69,43.01,2.38,103.69,0,146.86-1.96,35.74-18.94,64.32-47.25,85.27-45.88,33.96-97.2,64.11-143.78,97.27-40.61,19.83-78.43,14.6-115.55-9.03-46.57-29.64-91.18-65.07-137.8-94.98-23.55-20.62-37.14-49.46-38.97-80.82-2.42-41.46-2.25-97.77-.05-139.32,2.36-44.74,21.18-71.59,57.71-95.01,39.77-25.5,88.98-56.61,130.37-78.45,41.91-22.12,88.57-16.75,125.86,11.7ZM233.67,46.73c-.77-.74-18.48,1.96-21.22,2.35-34.37,4.91-67.95,18.54-96.17,38.54-4.93,3.5-20.82,15.15-23.77,19.26-.61.84-1.18,1.64-.64,2.73,5.75,3.56,40.49,42.92,43.53,43.38,1.42.22,19.61-14.74,23.22-17,14.24-8.91,31.85-16.87,48.26-20.6,5.11-1.16,23.45-2.86,25.88-4.05,1.29-.63,1.76-1.33,1.71-2.78-.98-7.26,1.44-59.7-.8-61.83ZM252.38,47.48v63.66c0,1.37,24.68,1.54,27.14,3.58,21.25-12.37,41.35-27.31,63.39-38.03l2.3,69.23c.02,1.87,3.98,6.44,5.57,6.44,3.12,0,39.65-38.61,44.54-43.83-36.94-37.46-90.21-59.49-142.92-61.04ZM326.45,105.9l-51.61,31.47c-.36,1.92.26,1.16,1.04,1.56,2.39,1.23,16.3,5.15,16.81,6.02,1.46,2.48-16.65,33.2-19.27,37.96-1.43,2.58-1.98,6.86-4.24,9.82-3.24,4.24-10.69,8.6-14.92,13.53-1.89,2.2-9.59,14.83-10.49,14.98-1,.17-10.42-13.97-12.35-16.07-41.5-45.18-113.65-15.53-117.42,44.93-.39,6.23,1.41,31.73,5.16,35.99,2.08,2.36,46.74.68,53.18.69l31.04-55.07,29.55,70.41,76.72-146.78c.82-1.14,1.49-.75,2.57-.38,1.78.61,15.9,12.43,16.49,11.61,1.79-2.45-3.53-53.31-2.24-60.66ZM88.53,252.68c1.75-22.69,7.98-45.19,19.33-64.91,2.1-3.66,15.19-20.19,15-21.49-.47-3.09-39.47-38.44-44.41-43.92-31.6,36.01-50.32,82.15-52.77,130.31h62.85ZM461.13,252.68c-2.1-37.85-14.18-74.83-34.56-106.58-2.28-3.56-16.33-24.36-19.61-23.8l-43.03,43.98c16.38,20.04,27.91,43.47,32.52,69.13.42,2.33.97,17.26,1.83,17.26h62.85ZM184.3,305.11h-55.37c1.34,5.35,6.26,10.86,9.75,15.33,23.95,30.69,59.52,62.41,90.16,86.5,2.9,2.28,10.97,9.4,13.6,10.42,1.07.41,1.49,1.02,2.67,0,51.29-44.08,161.8-119.58,118.12-199.62-9.71-17.8-28.1-30.78-48.39-33.28l-83.4,159.98-31.06-71.53-16.08,32.2ZM88.53,270.66H27.55c-.77,0-1.83.83-1.95,1.88-.3,2.43,1.25,13.8,1.68,17.12,4.68,36.42,22.45,77.07,46.31,104.93.76.88,4.19,5.06,4.83,4.9,3.98-6.7,43.25-40.63,43.72-43.93.15-1.06-10.84-14.55-12.51-17.27-12.4-20.08-19.43-44.1-21.1-67.63ZM460,270.66h-61.73c-.76,22.16-7.56,44.32-18.58,63.41-4.33,7.51-9.99,14.09-14.38,21.55,5.63,4.47,40.73,43.13,43.81,43.13,3.7,0,24.24-32.47,26.95-37.46,12.36-22.78,25.51-61.31,25.12-87.28-.02-1.07,0-2.91-1.19-3.36Z"/>
    <path class="cls-5" d="M184.3,305.11l16.08-32.2,31.06,71.53,83.4-159.98c20.29,2.5,38.68,15.48,48.39,33.28,43.68,80.04-66.83,155.55-118.12,199.62-1.18,1.02-1.61.41-2.67,0-2.63-1.02-10.7-8.14-13.6-10.42-30.63-24.09-66.2-55.82-90.16-86.5-3.49-4.47-8.42-9.98-9.75-15.33h55.37Z"/>
    <path class="cls-5" d="M326.45,105.9c-1.29,7.35,4.03,58.21,2.24,60.66-.59.82-14.71-11-16.49-11.61-1.07-.37-1.74-.76-2.57.38l-76.72,146.78-29.55-70.41-31.04,55.07c-6.44-.01-51.11,1.67-53.18-.69-3.75-4.26-5.55-29.77-5.16-35.99,3.77-60.46,75.92-90.1,117.42-44.93,1.93,2.1,11.35,16.24,12.35,16.07.9-.15,8.6-12.77,10.49-14.98,4.23-4.93,11.68-9.29,14.92-13.53,2.26-2.96,2.82-7.23,4.24-9.82,2.63-4.76,20.73-35.47,19.27-37.96-.51-.87-14.42-4.79-16.81-6.02-.78-.4-1.4.36-1.04-1.56l51.61-31.47Z"/>
    <path class="cls-2" d="M233.67,46.73c2.24,2.13-.18,54.58.8,61.83.05,1.45-.43,2.15-1.71,2.78-2.43,1.19-20.77,2.89-25.88,4.05-16.41,3.73-34.02,11.69-48.26,20.6-3.61,2.26-21.8,17.22-23.22,17-3.04-.46-37.78-39.82-43.53-43.38-.53-1.09.04-1.89.64-2.73,2.95-4.11,18.84-15.76,23.77-19.26,28.22-20.01,61.8-33.63,96.17-38.54,2.74-.39,20.45-3.09,21.22-2.35Z"/>
    <path class="cls-3" d="M88.53,252.68H25.68c2.44-48.16,21.17-94.3,52.77-130.31,4.94,5.49,43.94,40.83,44.41,43.92.2,1.3-12.89,17.83-15,21.49-11.35,19.72-17.58,42.22-19.33,64.91Z"/>
    <path class="cls-4" d="M461.13,252.68h-62.85c-.87,0-1.41-14.93-1.83-17.26-4.61-25.66-16.14-49.09-32.52-69.13l43.03-43.98c3.29-.57,17.33,20.24,19.61,23.8,20.38,31.75,32.46,68.73,34.56,106.58Z"/>
    <path class="cls-3" d="M88.53,270.66c1.66,23.53,8.69,47.55,21.1,67.63,1.68,2.72,12.66,16.21,12.51,17.27-.47,3.3-39.74,37.23-43.72,43.93-.64.16-4.07-4.02-4.83-4.9-23.86-27.86-41.64-68.5-46.31-104.93-.43-3.32-1.98-14.69-1.68-17.12.13-1.04,1.18-1.88,1.95-1.88h60.98Z"/>
    <path class="cls-4" d="M460,270.66c1.19.45,1.17,2.29,1.19,3.36.4,25.97-12.75,64.49-25.12,87.28-2.71,4.99-23.24,37.46-26.95,37.46-3.07,0-38.18-38.66-43.81-43.13,4.38-7.46,10.04-14.04,14.38-21.55,11.02-19.09,17.82-41.25,18.58-63.41h61.73Z"/>
    <path class="cls-2" d="M252.38,47.48c52.72,1.55,105.99,23.58,142.92,61.04-4.89,5.23-41.41,43.83-44.54,43.83-1.58,0-5.55-4.57-5.57-6.44l-2.3-69.23c-22.04,10.72-42.14,25.65-63.39,38.03-2.46-2.04-27.14-2.21-27.14-3.58v-63.66Z"/>
  </g>
</svg>